<svg xmlns="http://www.w3.org/2000/svg" width="600" height="600" viewBox="0 0 600 600" fill="none">
<path d="M301.476 48.0009C162.592 48.3453 50.1129 161.037 50.1129 300C50.1129 438.831 162.379 551.439 301.08 551.997C301.728 567.993 303.063 583.989 305.076 599.985C304.089 599.994 303.102 600 302.112 600C136.427 600 2.11304 465.684 2.11304 300C2.11304 134.314 136.427 0 302.112 0C303.468 0 304.824 0.00899721 306.174 0.0269344C303.927 16.0182 302.361 32.0094 301.476 48.0009ZM542.841 479.055C544.695 458.244 547.701 437.436 551.862 416.625C566.862 341.625 566.862 266.625 551.862 191.625C547.086 167.732 543.828 143.839 542.094 119.946C579.78 170.095 602.112 232.439 602.112 300C602.112 367.113 580.077 429.078 542.841 479.055ZM445.662 563.49C442.671 514.536 446.073 465.579 455.862 416.625C470.862 341.625 470.862 266.625 455.862 191.625C445.542 140.018 442.323 88.4121 446.205 36.8058C462.717 45.864 478.281 56.4309 492.717 68.3205C491.928 109.422 495.642 150.524 503.862 191.625C518.862 266.625 518.862 341.625 503.862 416.625C496.188 455.004 492.441 493.38 492.621 531.759C478.053 543.747 462.339 554.388 445.662 563.49ZM352.563 595.776C345.486 536.058 347.919 476.343 359.862 416.625C374.862 341.625 374.862 266.625 359.862 191.625C347.382 129.216 345.285 66.8067 353.577 4.39746C369.558 7.16019 385.107 11.1873 400.113 16.372C393.597 74.7897 396.18 133.207 407.862 191.625C422.862 266.625 422.862 341.625 407.862 416.625C396.711 472.389 393.849 528.15 399.282 583.914C384.213 589.071 368.604 593.061 352.563 595.776Z" fill="black"/>
</svg>