<svg width="1850" height="600" viewBox="0 0 1850 600" fill="none" xmlns="http://www.w3.org/2000/svg">
<path d="M825.521 299.706C825.521 245.084 867.848 203.025 920.62 203.025C953.053 203.025 981.088 218.866 999.229 243.445L1039.91 214.496C1012.42 177.899 973.392 153.866 920.62 153.866C835.416 153.866 770 218.866 770 299.706C770 380 835.416 445 920.62 445C973.392 445 1012.42 420.966 1039.91 384.916L999.229 355.42C981.088 380.546 953.053 396.387 920.62 396.387C867.848 396.387 825.521 353.235 825.521 299.706Z" fill="black"/>
<path d="M1364.25 299.16C1364.25 218.866 1297.18 153.866 1213.63 153.866C1130.07 153.866 1063.01 218.866 1063.01 299.16C1063.01 379.454 1130.07 445 1213.63 445C1297.18 445 1364.25 379.454 1364.25 299.16ZM1308.73 299.16C1308.73 353.235 1266.4 395.84 1213.63 395.84C1160.85 395.84 1118.53 353.235 1118.53 299.16C1118.53 245.63 1160.85 203.025 1213.63 203.025C1266.4 203.025 1308.73 245.63 1308.73 299.16Z" fill="black"/>
<path d="M1540.55 209.034V157.689H1521.31C1490.53 157.689 1467.99 171.891 1454.25 194.286V159.874H1399.28V438.445H1454.8V280.042C1454.8 236.891 1481.18 209.034 1517.46 209.034H1540.55Z" fill="black"/>
<path d="M1696.84 438.445H1750.16V389.832H1713.33C1696.29 389.832 1685.85 381.639 1685.85 366.345V208.487H1750.16V159.874H1685.85V77.9412L1630.32 96.2224V159.874H1577V208.487H1630.32V378.361C1630.32 413.319 1653.96 438.445 1696.84 438.445Z" fill="black"/>
<path d="M1817.15 121.092C1835.29 121.092 1849.59 106.345 1849.59 87.7731C1849.59 69.7479 1835.29 55 1817.15 55C1798.46 55 1783.62 69.7479 1783.62 87.7731C1783.62 106.345 1798.46 121.092 1817.15 121.092ZM1844.64 159.874H1789.12V438.445H1844.64V159.874Z" fill="black"/>
<path d="M301.476 48.0009C162.592 48.3453 50.1129 161.037 50.1129 300C50.1129 438.831 162.379 551.439 301.08 551.997C301.728 567.993 303.063 583.989 305.076 599.985C304.089 599.994 303.102 600 302.112 600C136.427 600 2.11304 465.684 2.11304 300C2.11304 134.314 136.427 0 302.112 0C303.468 0 304.824 0.00899721 306.174 0.0269344C303.927 16.0182 302.361 32.0094 301.476 48.0009ZM542.841 479.055C544.695 458.244 547.701 437.436 551.862 416.625C566.862 341.625 566.862 266.625 551.862 191.625C547.086 167.732 543.828 143.839 542.094 119.946C579.78 170.095 602.112 232.439 602.112 300C602.112 367.113 580.077 429.078 542.841 479.055ZM445.662 563.49C442.671 514.536 446.073 465.579 455.862 416.625C470.862 341.625 470.862 266.625 455.862 191.625C445.542 140.018 442.323 88.4121 446.205 36.8058C462.717 45.864 478.281 56.4309 492.717 68.3205C491.928 109.422 495.642 150.524 503.862 191.625C518.862 266.625 518.862 341.625 503.862 416.625C496.188 455.004 492.441 493.38 492.621 531.759C478.053 543.747 462.339 554.388 445.662 563.49ZM352.563 595.776C345.486 536.058 347.919 476.343 359.862 416.625C374.862 341.625 374.862 266.625 359.862 191.625C347.382 129.216 345.285 66.8067 353.577 4.39746C369.558 7.16019 385.107 11.1873 400.113 16.372C393.597 74.7897 396.18 133.207 407.862 191.625C422.862 266.625 422.862 341.625 407.862 416.625C396.711 472.389 393.849 528.15 399.282 583.914C384.213 589.071 368.604 593.061 352.563 595.776Z" fill="black"/>
</svg>
